<!--?xml version="1.0" encoding="utf-8"?-->
<!-- Generator: Adobe Illustrator 15.1.0, SVG Export Plug-In . SVG Version: 6.00 Build 0)  -->

<svg version="1.1" id="_x32_" xmlns="http://www.w3.org/2000/svg" xmlns:xlink="http://www.w3.org/1999/xlink" x="0px" y="0px" width="512px" height="512px" viewBox="0 0 512 512" style="width: 256px; height: 256px; opacity: 1;" xml:space="preserve">
<style type="text/css">

	.st0{fill:#4B4B4B;}

</style>
<g>
	<path class="st0" d="M452.156,160.297C429.25,135.406,396.5,119.703,360,119.703s-69.266,15.703-92.172,40.594H0v192h295.422
		c18.875,11.391,40.922,18.063,64.578,18.063s45.688-6.672,64.563-18.063H512v-192H452.156z M50.656,190.359h24v24h-24V190.359z
		 M210.656,310.359h-160v-24h160V310.359z M210.656,262.359h-160v-24h160V262.359z M360,327.703
		c-45.656,0-82.672-37.016-82.672-82.672s37.016-82.672,82.672-82.672s82.656,37.016,82.656,82.672S405.656,327.703,360,327.703z" style="fill: rgb(75, 75, 75);"></path>
	<path class="st0" d="M296,245.031l64-64C324.656,181.031,296,209.688,296,245.031z" style="fill: rgb(75, 75, 75);"></path>
	<rect x="16" y="360.297" class="st0" width="32" height="32" style="fill: rgb(75, 75, 75);"></rect>
	<rect x="464" y="360.297" class="st0" width="32" height="32" style="fill: rgb(75, 75, 75);"></rect>
</g>
</svg>
